<svg width="20" height="19" viewBox="0 0 20 19" fill="none" xmlns="http://www.w3.org/2000/svg">
<path d="M0 6C0 4.11438 0 3.17157 0.585786 2.58579C1.17157 2 2.11438 2 4 2H16C17.8856 2 18.8284 2 19.4142 2.58579C20 3.17157 20 4.11438 20 6V6C20 6.4714 20 6.70711 19.8536 6.85355C19.7071 7 19.4714 7 19 7H1C0.528596 7 0.292893 7 0.146447 6.85355C0 6.70711 0 6.4714 0 6V6Z" fill="#3F3F3F"/>
<path fill-rule="evenodd" clip-rule="evenodd" d="M0.585786 18.4142C0 17.8284 0 16.8856 0 15V10C0 9.5286 0 9.29289 0.146447 9.14645C0.292893 9 0.528596 9 1 9H19C19.4714 9 19.7071 9 19.8536 9.14645C20 9.29289 20 9.5286 20 10V15C20 16.8856 20 17.8284 19.4142 18.4142C18.8284 19 17.8856 19 16 19H4C2.11438 19 1.17157 19 0.585786 18.4142ZM6 13C5.44772 13 5 13.4477 5 14C5 14.5523 5.44772 15 6 15H14C14.5523 15 15 14.5523 15 14C15 13.4477 14.5523 13 14 13H6Z" fill="#3F3F3F"/>
</svg>
