<svg width="28" height="27" viewBox="0 0 28 27" fill="none" xmlns="http://www.w3.org/2000/svg">
<g filter="url(#filter0_d_598_10091)">
<path d="M4 6C4 4.11438 4 3.17157 4.58579 2.58579C5.17157 2 6.11438 2 8 2H20C21.8856 2 22.8284 2 23.4142 2.58579C24 3.17157 24 4.11438 24 6V6C24 6.4714 24 6.70711 23.8536 6.85355C23.7071 7 23.4714 7 23 7H5C4.5286 7 4.29289 7 4.14645 6.85355C4 6.70711 4 6.4714 4 6V6Z" fill="#3F3F3F"/>
<path fill-rule="evenodd" clip-rule="evenodd" d="M4.58579 18.4142C4 17.8284 4 16.8856 4 15V10C4 9.5286 4 9.29289 4.14645 9.14645C4.29289 9 4.5286 9 5 9H23C23.4714 9 23.7071 9 23.8536 9.14645C24 9.29289 24 9.5286 24 10V15C24 16.8856 24 17.8284 23.4142 18.4142C22.8284 19 21.8856 19 20 19H8C6.11438 19 5.17157 19 4.58579 18.4142ZM10 13C9.44772 13 9 13.4477 9 14C9 14.5523 9.44772 15 10 15H18C18.5523 15 19 14.5523 19 14C19 13.4477 18.5523 13 18 13H10Z" fill="#3F3F3F"/>
</g>
<defs>
<filter id="filter0_d_598_10091" x="0" y="2" width="28" height="25" filterUnits="userSpaceOnUse" color-interpolation-filters="sRGB">
<feFlood flood-opacity="0" result="BackgroundImageFix"/>
<feColorMatrix in="SourceAlpha" type="matrix" values="0 0 0 0 0 0 0 0 0 0 0 0 0 0 0 0 0 0 127 0" result="hardAlpha"/>
<feOffset dy="4"/>
<feGaussianBlur stdDeviation="2"/>
<feComposite in2="hardAlpha" operator="out"/>
<feColorMatrix type="matrix" values="0 0 0 0 0 0 0 0 0 0 0 0 0 0 0 0 0 0 0.25 0"/>
<feBlend mode="normal" in2="BackgroundImageFix" result="effect1_dropShadow_598_10091"/>
<feBlend mode="normal" in="SourceGraphic" in2="effect1_dropShadow_598_10091" result="shape"/>
</filter>
</defs>
</svg>
