<svg width="21" height="21" viewBox="0 0 21 21" fill="none" xmlns="http://www.w3.org/2000/svg">
<path d="M0.748047 6.85052C0.748047 5.33155 0.748047 4.57206 1.21993 4.10018C1.69181 3.6283 2.4513 3.6283 3.97027 3.6283H17.6255C19.1444 3.6283 19.9039 3.6283 20.3758 4.10018C20.8477 4.57206 20.8477 5.33155 20.8477 6.85052V7.68599C20.8477 8.06573 20.8477 8.2556 20.7297 8.37357C20.6118 8.49155 20.4219 8.49155 20.0421 8.49155H1.5536C1.17386 8.49155 0.983989 8.49155 0.866018 8.37357C0.748047 8.2556 0.748047 8.06573 0.748047 7.68599V6.85052Z" fill="#3F3F3F"/>
<path fill-rule="evenodd" clip-rule="evenodd" d="M0.748047 16.9412C0.748047 18.4601 0.748047 19.2196 1.21993 19.6915C1.69181 20.1634 2.4513 20.1634 3.97027 20.1634H17.6255C19.1444 20.1634 19.9039 20.1634 20.3758 19.6915C20.8477 19.2196 20.8477 18.4601 20.8477 16.9412V11.2424C20.8477 10.8627 20.8477 10.6728 20.7297 10.5549C20.6118 10.4369 20.4219 10.4369 20.0421 10.4369H1.5536C1.17386 10.4369 0.983989 10.4369 0.866018 10.5549C0.748047 10.6728 0.748047 10.8627 0.748047 11.2424V16.9412ZM5.77254 13.1877C5.77254 12.808 5.77254 12.6181 5.89051 12.5002C6.00848 12.3822 6.19836 12.3822 6.5781 12.3822H8.98692C9.36666 12.3822 9.55653 12.3822 9.6745 12.5002C9.79247 12.6181 9.79247 12.808 9.79247 13.1877V13.5219C9.79247 13.9017 9.79247 14.0915 9.6745 14.2095C9.55653 14.3275 9.36666 14.3275 8.98692 14.3275H6.5781C6.19836 14.3275 6.00848 14.3275 5.89051 14.2095C5.77254 14.0915 5.77254 13.9017 5.77254 13.5219V13.1877ZM5.89051 16.3908C5.77254 16.5087 5.77254 16.6986 5.77254 17.0783V17.4125C5.77254 17.7923 5.77254 17.9821 5.89051 18.1001C6.00848 18.2181 6.19836 18.2181 6.5781 18.2181H8.98692C9.36666 18.2181 9.55653 18.2181 9.6745 18.1001C9.79247 17.9821 9.79247 17.7923 9.79247 17.4125V17.0783C9.79247 16.6986 9.79247 16.5087 9.6745 16.3908C9.55653 16.2728 9.36666 16.2728 8.98692 16.2728H6.5781C6.19836 16.2728 6.00848 16.2728 5.89051 16.3908ZM11.8024 13.1877C11.8024 12.808 11.8024 12.6181 11.9204 12.5002C12.0384 12.3822 12.2282 12.3822 12.608 12.3822H15.0168C15.3965 12.3822 15.5864 12.3822 15.7044 12.5002C15.8223 12.6181 15.8223 12.808 15.8223 13.1877V13.5219C15.8223 13.9017 15.8223 14.0915 15.7044 14.2095C15.5864 14.3275 15.3965 14.3275 15.0168 14.3275H12.608C12.2282 14.3275 12.0384 14.3275 11.9204 14.2095C11.8024 14.0915 11.8024 13.9017 11.8024 13.5219V13.1877ZM11.9204 16.3908C11.8024 16.5087 11.8024 16.6986 11.8024 17.0783V17.4125C11.8024 17.7923 11.8024 17.9821 11.9204 18.1001C12.0384 18.2181 12.2282 18.2181 12.608 18.2181H15.0168C15.3965 18.2181 15.5864 18.2181 15.7044 18.1001C15.8223 17.9821 15.8223 17.7923 15.8223 17.4125V17.0783C15.8223 16.6986 15.8223 16.5087 15.7044 16.3908C15.5864 16.2728 15.3965 16.2728 15.0168 16.2728H12.608C12.2282 16.2728 12.0384 16.2728 11.9204 16.3908Z" fill="#3F3F3F"/>
<path d="M5.77344 1.68298L5.77344 4.60093" stroke="#3F3F3F" stroke-width="1.61111" stroke-linecap="round"/>
<path d="M15.8232 1.68298L15.8232 4.60093" stroke="#3F3F3F" stroke-width="1.61111" stroke-linecap="round"/>
</svg>
